<?xml version="1.0" standalone="no"?>
<!DOCTYPE svg PUBLIC "-//W3C//DTD SVG 20010904//EN"
 "http://www.w3.org/TR/2001/REC-SVG-20010904/DTD/svg10.dtd">
<svg version="1.0" xmlns="http://www.w3.org/2000/svg"
 width="100.000000pt" height="100.000000pt" viewBox="0 0 100.000000 100.000000"
 preserveAspectRatio="xMidYMid meet">

<g transform="translate(0.000000,100.000000) scale(0.100000,-0.100000)"
fill="#000000" stroke="none">
<path d="M492 780 c0 -19 2 -27 5 -17 2 9 2 25 0 35 -3 9 -5 1 -5 -18z"/>
<path d="M381 775 c1 -19 18 -51 18 -35 0 8 -4 22 -9 30 -5 8 -9 11 -9 5z"/>
<path d="M591 753 c-10 -26 -10 -27 4 -9 8 11 15 23 15 28 0 15 -7 8 -19 -19z"/>
<path d="M123 738 c2 -7 10 -13 17 -13 7 0 15 6 18 13 2 7 -5 12 -18 12 -13 0
-20 -5 -17 -12z"/>
<path d="M430 717 c-53 -17 -105 -76 -121 -136 -12 -49 -14 -51 -46 -51 -34 0
-35 -1 -94 -126 -32 -69 -59 -139 -59 -155 l0 -29 390 0 390 0 0 31 c0 19 -25
79 -66 155 -63 120 -67 124 -98 124 -30 0 -33 3 -45 51 -16 63 -69 119 -127
137 -49 14 -76 14 -124 -1z m172 -39 c36 -28 64 -74 70 -118 l3 -25 -170 -3
c-93 -1 -175 0 -181 2 -18 7 1 72 31 112 36 47 80 65 151 61 48 -2 69 -9 96
-29z m-252 -162 c0 -27 -16 -36 -66 -36 -30 0 -54 2 -54 4 0 27 16 36 66 36
30 0 54 -2 54 -4z m138 -18 c3 -16 -5 -18 -62 -18 -48 0 -66 4 -66 13 0 23 13
28 70 25 43 -2 56 -7 58 -20z m132 18 c0 -2 3 -11 6 -20 5 -14 -4 -16 -60 -16
-59 0 -66 2 -66 20 0 18 7 20 60 20 33 0 60 -2 60 -4z m140 -16 c10 -19 8 -20
-55 -20 -58 0 -65 2 -65 20 0 18 7 20 55 20 44 0 56 -4 65 -20z m-428 -55 c-4
-24 -8 -25 -68 -25 -68 0 -70 1 -54 31 9 15 22 19 69 19 57 0 58 -1 53 -25z
m158 0 c0 -24 -2 -25 -76 -25 -65 0 -75 2 -70 16 3 9 6 20 6 25 0 5 32 9 70 9
68 0 70 -1 70 -25z m148 -2 c3 -22 0 -23 -67 -23 -69 0 -71 1 -71 25 0 26 1
26 68 23 61 -3 67 -5 70 -25z m150 2 l12 -25 -69 0 c-54 0 -70 4 -75 16 -12
30 -5 34 57 34 58 0 65 -2 75 -25z m-472 -57 c-3 -13 -6 -26 -6 -30 0 -5 -34
-8 -75 -8 l-76 0 16 30 c15 29 18 30 81 30 64 0 66 -1 60 -22z m174 -8 l0 -30
-85 0 c-70 0 -84 2 -80 15 3 8 7 22 10 30 3 12 21 15 80 15 l75 0 0 -30z m164
8 c3 -13 6 -26 6 -30 0 -5 -36 -8 -80 -8 l-80 0 0 30 0 30 74 0 c68 0 74 -2
80 -22z m164 -3 c7 -14 12 -28 12 -31 0 -3 -35 -4 -77 -2 -74 3 -77 4 -84 31
l-7 27 72 0 c68 0 74 -2 84 -25z m-522 -67 c-3 -13 -6 -26 -6 -30 0 -8 -160
-11 -160 -3 0 2 5 16 12 30 11 24 16 25 86 25 72 0 74 -1 68 -22z m194 -8 l0
-30 -95 0 c-79 0 -94 2 -90 15 3 8 7 22 10 30 3 12 23 15 90 15 l85 0 0 -30z
m180 23 c0 -5 3 -18 6 -30 6 -23 5 -23 -85 -23 l-91 0 0 30 0 30 85 0 c47 0
85 -3 85 -7z m185 -23 l16 -31 -87 3 c-86 3 -88 3 -95 31 l-7 27 79 0 c77 0
79 0 94 -30z"/>
<path d="M300 685 c7 -8 17 -15 22 -15 6 0 5 7 -2 15 -7 8 -17 15 -22 15 -6 0
-5 -7 2 -15z"/>
<path d="M669 683 c-13 -15 -12 -15 9 -4 23 12 28 21 13 21 -5 0 -15 -7 -22
-17z"/>
<path d="M238 593 c7 -3 16 -2 19 1 4 3 -2 6 -13 5 -11 0 -14 -3 -6 -6z"/>
<path d="M738 593 c7 -3 16 -2 19 1 4 3 -2 6 -13 5 -11 0 -14 -3 -6 -6z"/>
<path d="M243 118 c2 -7 10 -13 17 -13 7 0 15 6 18 13 2 7 -5 12 -18 12 -13 0
-20 -5 -17 -12z"/>
</g>
</svg>
